<?xml version="1.0" encoding="UTF-8" standalone="no"?>
<!-- Created with Inkscape (http://www.inkscape.org/) -->

<svg
   width="116.87379mm"
   height="110.31374mm"
   viewBox="0 0 116.87379 110.31374"
   version="1.1"
   id="svg2725"
   inkscape:version="1.2.2 (b0a8486, 2022-12-01)"
   sodipodi:docname="triangle.svg"
   xmlns:inkscape="http://www.inkscape.org/namespaces/inkscape"
   xmlns:sodipodi="http://sodipodi.sourceforge.net/DTD/sodipodi-0.dtd"
   xmlns="http://www.w3.org/2000/svg"
   xmlns:svg="http://www.w3.org/2000/svg">
  <sodipodi:namedview
     id="namedview2727"
     pagecolor="#ffffff"
     bordercolor="#000000"
     borderopacity="0.25"
     inkscape:showpageshadow="2"
     inkscape:pageopacity="0.0"
     inkscape:pagecheckerboard="0"
     inkscape:deskcolor="#d1d1d1"
     inkscape:document-units="mm"
     showgrid="false"
     showguides="true"
     inkscape:lockguides="false"
     inkscape:zoom="0.51276154"
     inkscape:cx="-315.93633"
     inkscape:cy="506.0832"
     inkscape:window-width="1846"
     inkscape:window-height="1016"
     inkscape:window-x="0"
     inkscape:window-y="0"
     inkscape:window-maximized="1"
     inkscape:current-layer="layer1">
    <inkscape:grid
       type="xygrid"
       id="grid3721"
       originx="-92.204918"
       originy="-11.354205" />
  </sodipodi:namedview>
  <defs
     id="defs2722">
    <clipPath
       id="clipPath3754">
      <path
         clip-rule="nonzero"
         d="M 5,1 H 9 V 5.785156 H 5 Z m 0,0"
         id="path3410" />
    </clipPath>
    <clipPath
       id="clipPath325">
      <path
         clip-rule="nonzero"
         d="M 6,1 H 9 V 5.785156 H 6 Z m 0,0"
         id="path4854" />
    </clipPath>
    <clipPath
       id="clipPath1108">
      <path
         clip-rule="nonzero"
         d="M 5,1 H 9 V 5.785156 H 5 Z m 0,0"
         id="path4040" />
    </clipPath>
    <clipPath
       id="clipPath8879">
      <path
         clip-rule="nonzero"
         d="M 5,1 H 9 V 5.785156 H 5 Z m 0,0"
         id="path3866" />
    </clipPath>
    <clipPath
       id="clipPath2834">
      <path
         clip-rule="nonzero"
         d="M 4,3 H 8 V 8.414062 H 4 Z m 0,0"
         id="path3801" />
    </clipPath>
    <clipPath
       id="clipPath2169">
      <path
         clip-rule="nonzero"
         d="M 5,3 H 8 V 8.414062 H 5 Z m 0,0"
         id="path4849" />
    </clipPath>
    <clipPath
       id="clipPath5352">
      <path
         clip-rule="nonzero"
         d="M 4,3 H 8 V 8.414062 H 4 Z m 0,0"
         id="path9194" />
    </clipPath>
    <clipPath
       id="clipPath2124">
      <path
         clip-rule="nonzero"
         d="M 4,3 H 8 V 8.414062 H 4 Z m 0,0"
         id="path4057" />
    </clipPath>
    <clipPath
       id="clipPath1818">
      <path
         clip-rule="nonzero"
         d="M 4,1 H 8 V 5.785156 H 4 Z m 0,0"
         id="path9454" />
    </clipPath>
    <clipPath
       id="clipPath8298">
      <path
         clip-rule="nonzero"
         d="M 4,1 H 8 V 5.785156 H 4 Z m 0,0"
         id="path9561" />
    </clipPath>
    <clipPath
       id="clipPath5626">
      <path
         clip-rule="nonzero"
         d="M 5,1 H 8 V 5.785156 H 5 Z m 0,0"
         id="path8095" />
    </clipPath>
    <clipPath
       id="clipPath1154">
      <path
         clip-rule="nonzero"
         d="M 4,1 H 8 V 5.785156 H 4 Z m 0,0"
         id="path2867" />
    </clipPath>
    <clipPath
       id="clipPath6744">
      <path
         clip-rule="nonzero"
         d="M 0,0 H 10.808594 V 9.804688 H 0 Z m 0,0"
         id="path6114" />
    </clipPath>
    <clipPath
       id="clipPath3560">
      <path
         clip-rule="nonzero"
         d="M 0,0 H 11 V 11.765625 H 0 Z m 0,0"
         id="path3264" />
    </clipPath>
    <clipPath
       id="clipPath4894">
      <path
         clip-rule="nonzero"
         d="M 0,0 H 12 V 11.765625 H 0 Z m 0,0"
         id="path6670" />
    </clipPath>
  </defs>
  <g
     inkscape:label="Layer 1"
     inkscape:groupmode="layer"
     id="layer1"
     transform="translate(-92.204914,-11.354206)">
    <path
       style="fill:none;stroke:#d62728;stroke-width:0.3;stroke-linejoin:bevel;stroke-dasharray:none;stroke-dashoffset:0;stroke-opacity:1;paint-order:normal"
       d="m 150.49269,51.930969 36.34475,50.909451"
       id="path5502" />
    <path
       style="fill:none;stroke:#d62728;stroke-width:0.3;stroke-linejoin:bevel;stroke-dasharray:none;stroke-dashoffset:0;stroke-opacity:1;paint-order:normal"
       d="m 150.49269,51.930969 46.798,56.973511"
       id="path5504" />
    <path
       style="fill:none;stroke:#d62728;stroke-width:0.3;stroke-linejoin:bevel;stroke-dasharray:none;stroke-dashoffset:0;stroke-opacity:1;paint-order:normal"
       d="m 150.49269,51.930969 57.25126,63.037561"
       id="path5506" />
    <path
       style="fill:none;stroke:#d62728;stroke-width:0.3;stroke-linejoin:bevel;stroke-dasharray:none;stroke-dashoffset:0;stroke-opacity:1;paint-order:normal"
       d="M 176.38418,96.776359 150.49269,39.889456"
       id="path5508" />
    <path
       style="fill:none;stroke:#d62728;stroke-width:0.3;stroke-linejoin:bevel;stroke-dasharray:none;stroke-dashoffset:0;stroke-opacity:1;paint-order:normal"
       d="M 176.38418,96.776359 150.49269,27.847946"
       id="path5510" />
    <path
       style="fill:none;stroke:#d62728;stroke-width:0.3;stroke-linejoin:bevel;stroke-dasharray:none;stroke-dashoffset:0;stroke-opacity:1;paint-order:normal"
       d="M 176.38418,96.776359 150.49269,15.806434"
       id="path5512" />
    <path
       style="fill:none;stroke:#2ca02c;stroke-width:0.3;stroke-linejoin:bevel;stroke-dasharray:none;stroke-dashoffset:0;stroke-opacity:1;paint-order:normal"
       d="m 176.38418,96.776359 -62.23626,6.064061"
       id="path5514" />
    <path
       style="fill:none;stroke:#2ca02c;stroke-width:0.3;stroke-linejoin:bevel;stroke-dasharray:none;stroke-dashoffset:0;stroke-opacity:1;paint-order:normal"
       d="M 176.38418,96.776359 103.69469,108.90448"
       id="path5516" />
    <path
       style="fill:none;stroke:#2ca02c;stroke-width:0.3;stroke-linejoin:bevel;stroke-dasharray:none;stroke-dashoffset:0;stroke-opacity:1;paint-order:normal"
       d="M 176.38418,96.776359 93.24143,114.96853"
       id="path5518" />
    <path
       style="fill:none;stroke:#2ca02c;stroke-width:0.3;stroke-linejoin:bevel;stroke-dasharray:none;stroke-dashoffset:0;stroke-opacity:1;paint-order:normal"
       d="m 124.60119,96.776359 62.23625,6.064061"
       id="path5520" />
    <path
       style="fill:none;stroke:#2ca02c;stroke-width:0.3;stroke-linejoin:bevel;stroke-dasharray:none;stroke-dashoffset:0;stroke-opacity:1;paint-order:normal"
       d="m 124.60119,96.776359 72.6895,12.128121"
       id="path5522" />
    <path
       style="fill:none;stroke:#2ca02c;stroke-width:0.3;stroke-linejoin:bevel;stroke-dasharray:none;stroke-dashoffset:0;stroke-opacity:1;paint-order:normal"
       d="m 124.60119,96.776359 83.14276,18.192171"
       id="path5524" />
    <path
       style="fill:none;stroke:#1f77b4;stroke-width:0.3;stroke-linejoin:bevel;stroke-dasharray:none;stroke-dashoffset:0;stroke-opacity:1;paint-order:normal"
       d="m 124.60119,96.776359 25.8915,-56.886903"
       id="path5526" />
    <path
       style="fill:none;stroke:#1f77b4;stroke-width:0.3;stroke-linejoin:bevel;stroke-dasharray:none;stroke-dashoffset:0;stroke-opacity:1;paint-order:normal"
       d="m 124.60119,96.776359 25.8915,-68.928413"
       id="path5528" />
    <path
       style="fill:none;stroke:#1f77b4;stroke-width:0.3;stroke-linejoin:bevel;stroke-dasharray:none;stroke-dashoffset:0;stroke-opacity:1;paint-order:normal"
       d="m 124.60119,96.776359 25.8915,-80.969925"
       id="path5532" />
    <path
       style="fill:none;stroke:#1f77b4;stroke-width:0.3;stroke-linejoin:bevel;stroke-dasharray:none;stroke-dashoffset:0;stroke-opacity:1;paint-order:normal"
       d="M 150.49269,51.930969 114.14792,102.84042"
       id="path5534" />
    <path
       style="fill:none;stroke:#1f77b4;stroke-width:0.3;stroke-linejoin:bevel;stroke-dasharray:none;stroke-dashoffset:0;stroke-opacity:1;paint-order:normal"
       d="m 150.49269,51.930969 -46.798,56.973511"
       id="path5536" />
    <path
       style="fill:none;stroke:#1f77b4;stroke-width:0.3;stroke-linejoin:bevel;stroke-dasharray:none;stroke-dashoffset:0;stroke-opacity:1;paint-order:normal"
       d="M 150.49269,51.930969 93.241428,114.96853"
       id="path5538" />
    <path
       style="fill:none;stroke:#d62728;stroke-width:1;stroke-linejoin:bevel;stroke-dasharray:none;stroke-dashoffset:0;stroke-opacity:1;paint-order:normal"
       d="m 150.49269,51.930969 25.89149,44.84539"
       id="path5619" />
    <path
       style="fill:none;stroke:#1f77b4;stroke-width:1;stroke-linejoin:bevel;stroke-dasharray:none;stroke-dashoffset:0;stroke-opacity:1;paint-order:normal"
       d="m 150.49269,51.930969 -25.8915,44.84539"
       id="path5621" />
    <path
       style="fill:none;stroke:#2ca02c;stroke-width:1;stroke-linejoin:bevel;stroke-dasharray:none;stroke-dashoffset:0;stroke-opacity:1;paint-order:normal"
       d="m 124.60119,96.776359 h 51.78299"
       id="path5623" />
    <text
       xml:space="preserve"
       style="font-weight:bold;font-size:4.23333px;font-family:FreeMonoBold;-inkscape-font-specification:'FreeMonoBold Bold';text-align:center;text-anchor:middle;fill:none;stroke:#000000;stroke-width:0.3;stroke-linejoin:bevel;stroke-dasharray:none;stroke-dashoffset:0;stroke-opacity:1;paint-order:normal"
       x="123.03275"
       y="98.676331"
       id="text8583"><tspan
         sodipodi:role="line"
         id="tspan8581"
         style="font-size:4.23333px;fill:none;stroke:#000000;stroke-width:0.3"
         x="123.03275"
         y="98.676331" /></text>
    <g
       inkscape:label=""
       transform="translate(123.11009,98.767446)"
       id="g11012">
      <g
         fill="#000000"
         fill-opacity="1"
         id="g19"
         transform="matrix(0.352778,0,0,0.352778,-0.143316,0.0410104)">
        <g
           id="use17"
           transform="translate(0,4.29)">
          <path
             d="M 3.71875,-3.765625 C 3.53125,-4.140625 3.25,-4.40625 2.796875,-4.40625 c -1.15625,0 -2.390625,1.46875 -2.390625,2.921875 0,0.9375 0.546875,1.59375 1.3125,1.59375 0.203125,0 0.703125,-0.046875 1.296875,-0.75 0.078125,0.421875 0.4375,0.75 0.90625,0.75 0.359375,0 0.578125,-0.234375 0.75,-0.546875 0.15625,-0.359375 0.296875,-0.96875 0.296875,-0.984375 0,-0.109375 -0.09375,-0.109375 -0.125,-0.109375 -0.09375,0 -0.109375,0.046875 -0.140625,0.1875 -0.171875,0.640625 -0.34375,1.234375 -0.75,1.234375 -0.28125,0 -0.296875,-0.265625 -0.296875,-0.453125 0,-0.21875 0.015625,-0.3125 0.125,-0.75 C 3.890625,-1.71875 3.90625,-1.828125 4,-2.203125 L 4.359375,-3.59375 c 0.0625,-0.28125 0.0625,-0.296875 0.0625,-0.34375 0,-0.171875 -0.109375,-0.265625 -0.28125,-0.265625 -0.25,0 -0.390625,0.21875 -0.421875,0.4375 z M 3.078125,-1.1875 C 3.015625,-1 3.015625,-0.984375 2.875,-0.8125 2.4375,-0.265625 2.03125,-0.109375 1.75,-0.109375 c -0.5,0 -0.640625,-0.546875 -0.640625,-0.9375 0,-0.5 0.3125,-1.71875 0.546875,-2.1875 0.3125,-0.578125 0.75,-0.953125 1.15625,-0.953125 0.640625,0 0.78125,0.8125 0.78125,0.875 0,0.0625 -0.015625,0.125 -0.03125,0.171875 z m 0,0"
             id="path31" />
        </g>
      </g>
      <g
         clip-path="url(#clipPath3754)"
         id="g25"
         transform="matrix(0.352778,0,0,0.352778,-0.143316,0.0410104)">
        <g
           fill="#000000"
           fill-opacity="1"
           id="g23">
          <g
             id="use21"
             transform="translate(5.2659998,5.7839999)">
            <path
               d="M 3.59375,-2.21875 C 3.59375,-2.984375 3.5,-3.546875 3.1875,-4.03125 2.96875,-4.34375 2.53125,-4.625 1.984375,-4.625 c -1.625,0 -1.625,1.90625 -1.625,2.40625 0,0.5 0,2.359375 1.625,2.359375 1.609375,0 1.609375,-1.859375 1.609375,-2.359375 z M 1.984375,-0.0625 c -0.328125,0 -0.75,-0.1875 -0.890625,-0.75 C 1,-1.21875 1,-1.796875 1,-2.3125 1,-2.828125 1,-3.359375 1.09375,-3.734375 1.25,-4.28125 1.6875,-4.4375 1.984375,-4.4375 c 0.375,0 0.734375,0.234375 0.859375,0.640625 0.109375,0.375 0.125,0.875 0.125,1.484375 0,0.515625 0,1.03125 -0.09375,1.46875 -0.140625,0.640625 -0.609375,0.78125 -0.890625,0.78125 z m 0,0"
               id="path35" />
          </g>
        </g>
      </g>
    </g>
    <text
       xml:space="preserve"
       style="font-style:italic;font-variant:normal;font-weight:normal;font-stretch:normal;font-size:2.11667px;font-family:FreeMonoBold;-inkscape-font-specification:'FreeMonoBold Italic';text-align:center;text-anchor:middle;fill:#000000;fill-opacity:1;stroke:none;stroke-width:0.3;stroke-linejoin:bevel;stroke-dasharray:none;stroke-dashoffset:0;stroke-opacity:1;paint-order:normal"
       x="144.34081"
       y="107.43221"
       id="text12118"><tspan
         sodipodi:role="line"
         id="tspan12116"
         style="stroke-width:0.3"
         x="144.34081"
         y="107.43221" /></text>
    <g
       inkscape:label=""
       transform="translate(112.69463,104.83171)"
       id="g13333">
      <g
         fill="#000000"
         fill-opacity="1"
         id="g13323"
         transform="matrix(0.352778,0,0,0.352778,-0.143316,0.0410104)">
        <g
           id="g13321"
           transform="translate(0,4.29)">
          <path
             d="M 3.71875,-3.765625 C 3.53125,-4.140625 3.25,-4.40625 2.796875,-4.40625 c -1.15625,0 -2.390625,1.46875 -2.390625,2.921875 0,0.9375 0.546875,1.59375 1.3125,1.59375 0.203125,0 0.703125,-0.046875 1.296875,-0.75 0.078125,0.421875 0.4375,0.75 0.90625,0.75 0.359375,0 0.578125,-0.234375 0.75,-0.546875 0.15625,-0.359375 0.296875,-0.96875 0.296875,-0.984375 0,-0.109375 -0.09375,-0.109375 -0.125,-0.109375 -0.09375,0 -0.109375,0.046875 -0.140625,0.1875 -0.171875,0.640625 -0.34375,1.234375 -0.75,1.234375 -0.28125,0 -0.296875,-0.265625 -0.296875,-0.453125 0,-0.21875 0.015625,-0.3125 0.125,-0.75 C 3.890625,-1.71875 3.90625,-1.828125 4,-2.203125 L 4.359375,-3.59375 c 0.0625,-0.28125 0.0625,-0.296875 0.0625,-0.34375 0,-0.171875 -0.109375,-0.265625 -0.28125,-0.265625 -0.25,0 -0.390625,0.21875 -0.421875,0.4375 z M 3.078125,-1.1875 C 3.015625,-1 3.015625,-0.984375 2.875,-0.8125 2.4375,-0.265625 2.03125,-0.109375 1.75,-0.109375 c -0.5,0 -0.640625,-0.546875 -0.640625,-0.9375 0,-0.5 0.3125,-1.71875 0.546875,-2.1875 0.3125,-0.578125 0.75,-0.953125 1.15625,-0.953125 0.640625,0 0.78125,0.8125 0.78125,0.875 0,0.0625 -0.015625,0.125 -0.03125,0.171875 z m 0,0"
             id="path13319" />
        </g>
      </g>
      <g
         clip-path="url(#clipPath325)"
         id="g13331"
         transform="matrix(0.352778,0,0,0.352778,-0.143316,0.0410104)">
        <g
           fill="#000000"
           fill-opacity="1"
           id="g13329">
          <g
             id="g13327"
             transform="translate(5.2659998,5.7839999)">
            <path
               d="m 2.328125,-4.4375 c 0,-0.1875 0,-0.1875 -0.203125,-0.1875 -0.453125,0.4375 -1.078125,0.4375 -1.359375,0.4375 v 0.25 c 0.15625,0 0.625,0 1,-0.1875 v 3.546875 c 0,0.234375 0,0.328125 -0.6875,0.328125 H 0.8125 V 0 c 0.125,0 0.984375,-0.03125 1.234375,-0.03125 0.21875,0 1.09375,0.03125 1.25,0.03125 V -0.25 H 3.03125 c -0.703125,0 -0.703125,-0.09375 -0.703125,-0.328125 z m 0,0"
               id="path13325" />
          </g>
        </g>
      </g>
    </g>
    <g
       inkscape:label=""
       transform="translate(102.19268,110.84563)"
       id="g13492">
      <g
         fill="#000000"
         fill-opacity="1"
         id="g13482"
         transform="matrix(0.352778,0,0,0.352778,-0.143316,0.0410104)">
        <g
           id="g13480"
           transform="translate(0,4.29)">
          <path
             d="M 3.71875,-3.765625 C 3.53125,-4.140625 3.25,-4.40625 2.796875,-4.40625 c -1.15625,0 -2.390625,1.46875 -2.390625,2.921875 0,0.9375 0.546875,1.59375 1.3125,1.59375 0.203125,0 0.703125,-0.046875 1.296875,-0.75 0.078125,0.421875 0.4375,0.75 0.90625,0.75 0.359375,0 0.578125,-0.234375 0.75,-0.546875 0.15625,-0.359375 0.296875,-0.96875 0.296875,-0.984375 0,-0.109375 -0.09375,-0.109375 -0.125,-0.109375 -0.09375,0 -0.109375,0.046875 -0.140625,0.1875 -0.171875,0.640625 -0.34375,1.234375 -0.75,1.234375 -0.28125,0 -0.296875,-0.265625 -0.296875,-0.453125 0,-0.21875 0.015625,-0.3125 0.125,-0.75 C 3.890625,-1.71875 3.90625,-1.828125 4,-2.203125 L 4.359375,-3.59375 c 0.0625,-0.28125 0.0625,-0.296875 0.0625,-0.34375 0,-0.171875 -0.109375,-0.265625 -0.28125,-0.265625 -0.25,0 -0.390625,0.21875 -0.421875,0.4375 z M 3.078125,-1.1875 C 3.015625,-1 3.015625,-0.984375 2.875,-0.8125 2.4375,-0.265625 2.03125,-0.109375 1.75,-0.109375 c -0.5,0 -0.640625,-0.546875 -0.640625,-0.9375 0,-0.5 0.3125,-1.71875 0.546875,-2.1875 0.3125,-0.578125 0.75,-0.953125 1.15625,-0.953125 0.640625,0 0.78125,0.8125 0.78125,0.875 0,0.0625 -0.015625,0.125 -0.03125,0.171875 z m 0,0"
             id="path13478" />
        </g>
      </g>
      <g
         clip-path="url(#clipPath1108)"
         id="g13490"
         transform="matrix(0.352778,0,0,0.352778,-0.143316,0.0410104)">
        <g
           fill="#000000"
           fill-opacity="1"
           id="g13488">
          <g
             id="g13486"
             transform="translate(5.2659998,5.7839999)">
            <path
               d="M 3.515625,-1.265625 H 3.28125 c -0.015625,0.15625 -0.09375,0.5625 -0.1875,0.625 C 3.046875,-0.59375 2.515625,-0.59375 2.40625,-0.59375 H 1.125 c 0.734375,-0.640625 0.984375,-0.84375 1.390625,-1.171875 0.515625,-0.40625 1,-0.84375 1,-1.5 0,-0.84375 -0.734375,-1.359375 -1.625,-1.359375 -0.859375,0 -1.453125,0.609375 -1.453125,1.25 0,0.34375 0.296875,0.390625 0.375,0.390625 0.15625,0 0.359375,-0.125 0.359375,-0.375 0,-0.125 -0.046875,-0.375 -0.40625,-0.375 C 0.984375,-4.21875 1.453125,-4.375 1.78125,-4.375 c 0.703125,0 1.0625,0.546875 1.0625,1.109375 0,0.609375 -0.4375,1.078125 -0.65625,1.328125 L 0.515625,-0.265625 C 0.4375,-0.203125 0.4375,-0.1875 0.4375,0 h 2.875 z m 0,0"
               id="path13484" />
          </g>
        </g>
      </g>
    </g>
    <g
       inkscape:label=""
       transform="translate(93.209368,117.19363)"
       id="g14397">
      <g
         fill="#000000"
         fill-opacity="1"
         id="g14387"
         transform="matrix(0.352778,0,0,0.352778,-0.143316,0.0410104)">
        <g
           id="g14385"
           transform="translate(0,4.29)">
          <path
             d="M 3.71875,-3.765625 C 3.53125,-4.140625 3.25,-4.40625 2.796875,-4.40625 c -1.15625,0 -2.390625,1.46875 -2.390625,2.921875 0,0.9375 0.546875,1.59375 1.3125,1.59375 0.203125,0 0.703125,-0.046875 1.296875,-0.75 0.078125,0.421875 0.4375,0.75 0.90625,0.75 0.359375,0 0.578125,-0.234375 0.75,-0.546875 0.15625,-0.359375 0.296875,-0.96875 0.296875,-0.984375 0,-0.109375 -0.09375,-0.109375 -0.125,-0.109375 -0.09375,0 -0.109375,0.046875 -0.140625,0.1875 -0.171875,0.640625 -0.34375,1.234375 -0.75,1.234375 -0.28125,0 -0.296875,-0.265625 -0.296875,-0.453125 0,-0.21875 0.015625,-0.3125 0.125,-0.75 C 3.890625,-1.71875 3.90625,-1.828125 4,-2.203125 L 4.359375,-3.59375 c 0.0625,-0.28125 0.0625,-0.296875 0.0625,-0.34375 0,-0.171875 -0.109375,-0.265625 -0.28125,-0.265625 -0.25,0 -0.390625,0.21875 -0.421875,0.4375 z M 3.078125,-1.1875 C 3.015625,-1 3.015625,-0.984375 2.875,-0.8125 2.4375,-0.265625 2.03125,-0.109375 1.75,-0.109375 c -0.5,0 -0.640625,-0.546875 -0.640625,-0.9375 0,-0.5 0.3125,-1.71875 0.546875,-2.1875 0.3125,-0.578125 0.75,-0.953125 1.15625,-0.953125 0.640625,0 0.78125,0.8125 0.78125,0.875 0,0.0625 -0.015625,0.125 -0.03125,0.171875 z m 0,0"
             id="path14383" />
        </g>
      </g>
      <g
         clip-path="url(#clipPath8879)"
         id="g14395"
         transform="matrix(0.352778,0,0,0.352778,-0.143316,0.0410104)">
        <g
           fill="#000000"
           fill-opacity="1"
           id="g14393">
          <g
             id="g14391"
             transform="translate(5.2659998,5.7839999)">
            <path
               d="m 1.90625,-2.328125 c 0.546875,0 0.9375,0.375 0.9375,1.125 0,0.859375 -0.515625,1.125 -0.90625,1.125 -0.28125,0 -0.90625,-0.078125 -1.1875,-0.5 0.328125,0 0.40625,-0.234375 0.40625,-0.390625 0,-0.21875 -0.171875,-0.375 -0.390625,-0.375 -0.1875,0 -0.390625,0.125 -0.390625,0.40625 0,0.65625 0.71875,1.078125 1.5625,1.078125 0.96875,0 1.640625,-0.65625 1.640625,-1.34375 0,-0.546875 -0.4375,-1.09375 -1.203125,-1.25 0.71875,-0.265625 0.984375,-0.78125 0.984375,-1.21875 0,-0.546875 -0.625,-0.953125 -1.40625,-0.953125 -0.765625,0 -1.359375,0.375 -1.359375,0.9375 0,0.234375 0.15625,0.359375 0.359375,0.359375 0.21875,0 0.359375,-0.15625 0.359375,-0.34375 0,-0.203125 -0.140625,-0.359375 -0.359375,-0.375 0.25,-0.296875 0.71875,-0.375 0.984375,-0.375 0.3125,0 0.75,0.15625 0.75,0.75 0,0.296875 -0.09375,0.625 -0.28125,0.828125 -0.21875,0.265625 -0.421875,0.28125 -0.765625,0.3125 -0.171875,0.015625 -0.1875,0.015625 -0.21875,0.015625 -0.015625,0 -0.078125,0.015625 -0.078125,0.09375 0,0.09375 0.0625,0.09375 0.1875,0.09375 z m 0,0"
               id="path14389" />
          </g>
        </g>
      </g>
    </g>
    <g
       inkscape:label=""
       transform="translate(175.07873,98.323734)"
       id="g15322">
      <g
         fill="#000000"
         fill-opacity="1"
         id="g15312"
         transform="matrix(0.352778,0,0,0.352778,-0.165365,0.00101418)">
        <g
           id="g15310"
           transform="translate(0,6.9190001)">
          <path
             d="m 2.375,-6.8125 c 0,0 0,-0.109375 -0.125,-0.109375 -0.21875,0 -0.953125,0.078125 -1.21875,0.109375 -0.078125,0 -0.1875,0.015625 -0.1875,0.1875 0,0.125 0.09375,0.125 0.25,0.125 0.46875,0 0.484375,0.0625 0.484375,0.171875 0,0.0625 -0.078125,0.40625 -0.125,0.609375 l -0.828125,3.25 c -0.109375,0.5 -0.15625,0.671875 -0.15625,1.015625 0,0.9375 0.53125,1.5625 1.265625,1.5625 1.171875,0 2.40625,-1.484375 2.40625,-2.921875 0,-0.90625 -0.53125,-1.59375 -1.328125,-1.59375 -0.453125,0 -0.875,0.296875 -1.171875,0.59375 z M 1.453125,-3.046875 C 1.5,-3.265625 1.5,-3.28125 1.59375,-3.390625 2.078125,-4.03125 2.53125,-4.1875 2.796875,-4.1875 c 0.359375,0 0.625,0.296875 0.625,0.9375 0,0.59375 -0.328125,1.734375 -0.515625,2.109375 -0.328125,0.671875 -0.78125,1.03125 -1.171875,1.03125 -0.34375,0 -0.671875,-0.265625 -0.671875,-1 0,-0.203125 0,-0.390625 0.15625,-1.015625 z m 0,0"
             id="path15308" />
        </g>
      </g>
      <g
         clip-path="url(#clipPath2834)"
         id="g15320"
         transform="matrix(0.352778,0,0,0.352778,-0.165365,0.00101418)">
        <g
           fill="#000000"
           fill-opacity="1"
           id="g15318">
          <g
             id="g15316"
             transform="translate(4.276,8.4130001)">
            <path
               d="M 3.59375,-2.21875 C 3.59375,-2.984375 3.5,-3.546875 3.1875,-4.03125 2.96875,-4.34375 2.53125,-4.625 1.984375,-4.625 c -1.625,0 -1.625,1.90625 -1.625,2.40625 0,0.5 0,2.359375 1.625,2.359375 1.609375,0 1.609375,-1.859375 1.609375,-2.359375 z M 1.984375,-0.0625 c -0.328125,0 -0.75,-0.1875 -0.890625,-0.75 C 1,-1.21875 1,-1.796875 1,-2.3125 1,-2.828125 1,-3.359375 1.09375,-3.734375 1.25,-4.28125 1.6875,-4.4375 1.984375,-4.4375 c 0.375,0 0.734375,0.234375 0.859375,0.640625 0.109375,0.375 0.125,0.875 0.125,1.484375 0,0.515625 0,1.03125 -0.09375,1.46875 -0.140625,0.640625 -0.609375,0.78125 -0.890625,0.78125 z m 0,0"
               id="path15314" />
          </g>
        </g>
      </g>
    </g>
    <g
       inkscape:label=""
       transform="translate(185.5989,104.38798)"
       id="g15541">
      <g
         fill="#000000"
         fill-opacity="1"
         id="g15531"
         transform="matrix(0.352778,0,0,0.352778,-0.165365,0.00101418)">
        <g
           id="g15529"
           transform="translate(0,6.9190001)">
          <path
             d="m 2.375,-6.8125 c 0,0 0,-0.109375 -0.125,-0.109375 -0.21875,0 -0.953125,0.078125 -1.21875,0.109375 -0.078125,0 -0.1875,0.015625 -0.1875,0.1875 0,0.125 0.09375,0.125 0.25,0.125 0.46875,0 0.484375,0.0625 0.484375,0.171875 0,0.0625 -0.078125,0.40625 -0.125,0.609375 l -0.828125,3.25 c -0.109375,0.5 -0.15625,0.671875 -0.15625,1.015625 0,0.9375 0.53125,1.5625 1.265625,1.5625 1.171875,0 2.40625,-1.484375 2.40625,-2.921875 0,-0.90625 -0.53125,-1.59375 -1.328125,-1.59375 -0.453125,0 -0.875,0.296875 -1.171875,0.59375 z M 1.453125,-3.046875 C 1.5,-3.265625 1.5,-3.28125 1.59375,-3.390625 2.078125,-4.03125 2.53125,-4.1875 2.796875,-4.1875 c 0.359375,0 0.625,0.296875 0.625,0.9375 0,0.59375 -0.328125,1.734375 -0.515625,2.109375 -0.328125,0.671875 -0.78125,1.03125 -1.171875,1.03125 -0.34375,0 -0.671875,-0.265625 -0.671875,-1 0,-0.203125 0,-0.390625 0.15625,-1.015625 z m 0,0"
             id="path15527" />
        </g>
      </g>
      <g
         clip-path="url(#clipPath2169)"
         id="g15539"
         transform="matrix(0.352778,0,0,0.352778,-0.165365,0.00101418)">
        <g
           fill="#000000"
           fill-opacity="1"
           id="g15537">
          <g
             id="g15535"
             transform="translate(4.276,8.4130001)">
            <path
               d="m 2.328125,-4.4375 c 0,-0.1875 0,-0.1875 -0.203125,-0.1875 -0.453125,0.4375 -1.078125,0.4375 -1.359375,0.4375 v 0.25 c 0.15625,0 0.625,0 1,-0.1875 v 3.546875 c 0,0.234375 0,0.328125 -0.6875,0.328125 H 0.8125 V 0 c 0.125,0 0.984375,-0.03125 1.234375,-0.03125 0.21875,0 1.09375,0.03125 1.25,0.03125 V -0.25 H 3.03125 c -0.703125,0 -0.703125,-0.09375 -0.703125,-0.328125 z m 0,0"
               id="path15533" />
          </g>
        </g>
      </g>
    </g>
    <g
       inkscape:label=""
       transform="translate(196.0237,110.62684)"
       id="g15780">
      <g
         fill="#000000"
         fill-opacity="1"
         id="g15770"
         transform="matrix(0.352778,0,0,0.352778,-0.165365,0.00101418)">
        <g
           id="g15768"
           transform="translate(0,6.9190001)">
          <path
             d="m 2.375,-6.8125 c 0,0 0,-0.109375 -0.125,-0.109375 -0.21875,0 -0.953125,0.078125 -1.21875,0.109375 -0.078125,0 -0.1875,0.015625 -0.1875,0.1875 0,0.125 0.09375,0.125 0.25,0.125 0.46875,0 0.484375,0.0625 0.484375,0.171875 0,0.0625 -0.078125,0.40625 -0.125,0.609375 l -0.828125,3.25 c -0.109375,0.5 -0.15625,0.671875 -0.15625,1.015625 0,0.9375 0.53125,1.5625 1.265625,1.5625 1.171875,0 2.40625,-1.484375 2.40625,-2.921875 0,-0.90625 -0.53125,-1.59375 -1.328125,-1.59375 -0.453125,0 -0.875,0.296875 -1.171875,0.59375 z M 1.453125,-3.046875 C 1.5,-3.265625 1.5,-3.28125 1.59375,-3.390625 2.078125,-4.03125 2.53125,-4.1875 2.796875,-4.1875 c 0.359375,0 0.625,0.296875 0.625,0.9375 0,0.59375 -0.328125,1.734375 -0.515625,2.109375 -0.328125,0.671875 -0.78125,1.03125 -1.171875,1.03125 -0.34375,0 -0.671875,-0.265625 -0.671875,-1 0,-0.203125 0,-0.390625 0.15625,-1.015625 z m 0,0"
             id="path15766" />
        </g>
      </g>
      <g
         clip-path="url(#clipPath5352)"
         id="g15778"
         transform="matrix(0.352778,0,0,0.352778,-0.165365,0.00101418)">
        <g
           fill="#000000"
           fill-opacity="1"
           id="g15776">
          <g
             id="g15774"
             transform="translate(4.276,8.4130001)">
            <path
               d="M 3.515625,-1.265625 H 3.28125 c -0.015625,0.15625 -0.09375,0.5625 -0.1875,0.625 C 3.046875,-0.59375 2.515625,-0.59375 2.40625,-0.59375 H 1.125 c 0.734375,-0.640625 0.984375,-0.84375 1.390625,-1.171875 0.515625,-0.40625 1,-0.84375 1,-1.5 0,-0.84375 -0.734375,-1.359375 -1.625,-1.359375 -0.859375,0 -1.453125,0.609375 -1.453125,1.25 0,0.34375 0.296875,0.390625 0.375,0.390625 0.15625,0 0.359375,-0.125 0.359375,-0.375 0,-0.125 -0.046875,-0.375 -0.40625,-0.375 C 0.984375,-4.21875 1.453125,-4.375 1.78125,-4.375 c 0.703125,0 1.0625,0.546875 1.0625,1.109375 0,0.609375 -0.4375,1.078125 -0.65625,1.328125 L 0.515625,-0.265625 C 0.4375,-0.203125 0.4375,-0.1875 0.4375,0 h 2.875 z m 0,0"
               id="path15772" />
          </g>
        </g>
      </g>
    </g>
    <g
       inkscape:label=""
       transform="translate(206.47331,116.99946)"
       id="g16039">
      <g
         fill="#000000"
         fill-opacity="1"
         id="g16029"
         transform="matrix(0.352778,0,0,0.352778,-0.165365,0.00101418)">
        <g
           id="g16027"
           transform="translate(0,6.9190001)">
          <path
             d="m 2.375,-6.8125 c 0,0 0,-0.109375 -0.125,-0.109375 -0.21875,0 -0.953125,0.078125 -1.21875,0.109375 -0.078125,0 -0.1875,0.015625 -0.1875,0.1875 0,0.125 0.09375,0.125 0.25,0.125 0.46875,0 0.484375,0.0625 0.484375,0.171875 0,0.0625 -0.078125,0.40625 -0.125,0.609375 l -0.828125,3.25 c -0.109375,0.5 -0.15625,0.671875 -0.15625,1.015625 0,0.9375 0.53125,1.5625 1.265625,1.5625 1.171875,0 2.40625,-1.484375 2.40625,-2.921875 0,-0.90625 -0.53125,-1.59375 -1.328125,-1.59375 -0.453125,0 -0.875,0.296875 -1.171875,0.59375 z M 1.453125,-3.046875 C 1.5,-3.265625 1.5,-3.28125 1.59375,-3.390625 2.078125,-4.03125 2.53125,-4.1875 2.796875,-4.1875 c 0.359375,0 0.625,0.296875 0.625,0.9375 0,0.59375 -0.328125,1.734375 -0.515625,2.109375 -0.328125,0.671875 -0.78125,1.03125 -1.171875,1.03125 -0.34375,0 -0.671875,-0.265625 -0.671875,-1 0,-0.203125 0,-0.390625 0.15625,-1.015625 z m 0,0"
             id="path16025" />
        </g>
      </g>
      <g
         clip-path="url(#clipPath2124)"
         id="g16037"
         transform="matrix(0.352778,0,0,0.352778,-0.165365,0.00101418)">
        <g
           fill="#000000"
           fill-opacity="1"
           id="g16035">
          <g
             id="g16033"
             transform="translate(4.276,8.4130001)">
            <path
               d="m 1.90625,-2.328125 c 0.546875,0 0.9375,0.375 0.9375,1.125 0,0.859375 -0.515625,1.125 -0.90625,1.125 -0.28125,0 -0.90625,-0.078125 -1.1875,-0.5 0.328125,0 0.40625,-0.234375 0.40625,-0.390625 0,-0.21875 -0.171875,-0.375 -0.390625,-0.375 -0.1875,0 -0.390625,0.125 -0.390625,0.40625 0,0.65625 0.71875,1.078125 1.5625,1.078125 0.96875,0 1.640625,-0.65625 1.640625,-1.34375 0,-0.546875 -0.4375,-1.09375 -1.203125,-1.25 0.71875,-0.265625 0.984375,-0.78125 0.984375,-1.21875 0,-0.546875 -0.625,-0.953125 -1.40625,-0.953125 -0.765625,0 -1.359375,0.375 -1.359375,0.9375 0,0.234375 0.15625,0.359375 0.359375,0.359375 0.21875,0 0.359375,-0.15625 0.359375,-0.34375 0,-0.203125 -0.140625,-0.359375 -0.359375,-0.375 0.25,-0.296875 0.71875,-0.375 0.984375,-0.375 0.3125,0 0.75,0.15625 0.75,0.75 0,0.296875 -0.09375,0.625 -0.28125,0.828125 -0.21875,0.265625 -0.421875,0.28125 -0.765625,0.3125 -0.171875,0.015625 -0.1875,0.015625 -0.21875,0.015625 -0.015625,0 -0.078125,0.015625 -0.078125,0.09375 0,0.09375 0.0625,0.09375 0.1875,0.09375 z m 0,0"
               id="path16031" />
          </g>
        </g>
      </g>
    </g>
    <g
       inkscape:label=""
       transform="translate(149.31567,11.354206)"
       id="g16318">
      <g
         fill="#000000"
         fill-opacity="1"
         id="g16308"
         transform="matrix(0.352778,0,0,0.352778,-0.143316,0.0410104)">
        <g
           id="g16306"
           transform="translate(0,4.29)">
          <path
             d="m 3.953125,-3.78125 c -0.171875,0 -0.296875,0 -0.4375,0.125 -0.171875,0.15625 -0.1875,0.328125 -0.1875,0.390625 0,0.25 0.1875,0.359375 0.375,0.359375 0.28125,0 0.546875,-0.25 0.546875,-0.640625 0,-0.484375 -0.46875,-0.859375 -1.171875,-0.859375 -1.34375,0 -2.671875,1.421875 -2.671875,2.828125 0,0.90625 0.578125,1.6875 1.625,1.6875 1.421875,0 2.25,-1.0625 2.25,-1.171875 0,-0.0625 -0.046875,-0.140625 -0.109375,-0.140625 -0.0625,0 -0.078125,0.03125 -0.140625,0.109375 -0.78125,0.984375 -1.875,0.984375 -1.984375,0.984375 -0.625,0 -0.90625,-0.484375 -0.90625,-1.09375 0,-0.40625 0.203125,-1.375 0.546875,-1.984375 0.3125,-0.578125 0.859375,-1 1.40625,-1 0.328125,0 0.71875,0.125 0.859375,0.40625 z m 0,0"
             id="path16304" />
        </g>
      </g>
      <g
         clip-path="url(#clipPath1818)"
         id="g16316"
         transform="matrix(0.352778,0,0,0.352778,-0.143316,0.0410104)">
        <g
           fill="#000000"
           fill-opacity="1"
           id="g16314">
          <g
             id="g16312"
             transform="translate(4.3109999,5.7839999)">
            <path
               d="m 1.90625,-2.328125 c 0.546875,0 0.9375,0.375 0.9375,1.125 0,0.859375 -0.515625,1.125 -0.90625,1.125 -0.28125,0 -0.90625,-0.078125 -1.1875,-0.5 0.328125,0 0.40625,-0.234375 0.40625,-0.390625 0,-0.21875 -0.171875,-0.375 -0.390625,-0.375 -0.1875,0 -0.390625,0.125 -0.390625,0.40625 0,0.65625 0.71875,1.078125 1.5625,1.078125 0.96875,0 1.640625,-0.65625 1.640625,-1.34375 0,-0.546875 -0.4375,-1.09375 -1.203125,-1.25 0.71875,-0.265625 0.984375,-0.78125 0.984375,-1.21875 0,-0.546875 -0.625,-0.953125 -1.40625,-0.953125 -0.765625,0 -1.359375,0.375 -1.359375,0.9375 0,0.234375 0.15625,0.359375 0.359375,0.359375 0.21875,0 0.359375,-0.15625 0.359375,-0.34375 0,-0.203125 -0.140625,-0.359375 -0.359375,-0.375 0.25,-0.296875 0.71875,-0.375 0.984375,-0.375 0.3125,0 0.75,0.15625 0.75,0.75 0,0.296875 -0.09375,0.625 -0.28125,0.828125 -0.21875,0.265625 -0.421875,0.28125 -0.765625,0.3125 -0.171875,0.015625 -0.1875,0.015625 -0.21875,0.015625 -0.015625,0 -0.078125,0.015625 -0.078125,0.09375 0,0.09375 0.0625,0.09375 0.1875,0.09375 z m 0,0"
               id="path16310" />
          </g>
        </g>
      </g>
    </g>
    <g
       inkscape:label=""
       transform="translate(149.32424,23.332641)"
       id="g16617">
      <g
         fill="#000000"
         fill-opacity="1"
         id="g16607"
         transform="matrix(0.352778,0,0,0.352778,-0.143316,0.0410104)">
        <g
           id="g16605"
           transform="translate(0,4.29)">
          <path
             d="m 3.953125,-3.78125 c -0.171875,0 -0.296875,0 -0.4375,0.125 -0.171875,0.15625 -0.1875,0.328125 -0.1875,0.390625 0,0.25 0.1875,0.359375 0.375,0.359375 0.28125,0 0.546875,-0.25 0.546875,-0.640625 0,-0.484375 -0.46875,-0.859375 -1.171875,-0.859375 -1.34375,0 -2.671875,1.421875 -2.671875,2.828125 0,0.90625 0.578125,1.6875 1.625,1.6875 1.421875,0 2.25,-1.0625 2.25,-1.171875 0,-0.0625 -0.046875,-0.140625 -0.109375,-0.140625 -0.0625,0 -0.078125,0.03125 -0.140625,0.109375 -0.78125,0.984375 -1.875,0.984375 -1.984375,0.984375 -0.625,0 -0.90625,-0.484375 -0.90625,-1.09375 0,-0.40625 0.203125,-1.375 0.546875,-1.984375 0.3125,-0.578125 0.859375,-1 1.40625,-1 0.328125,0 0.71875,0.125 0.859375,0.40625 z m 0,0"
             id="path16603" />
        </g>
      </g>
      <g
         clip-path="url(#clipPath8298)"
         id="g16615"
         transform="matrix(0.352778,0,0,0.352778,-0.143316,0.0410104)">
        <g
           fill="#000000"
           fill-opacity="1"
           id="g16613">
          <g
             id="g16611"
             transform="translate(4.3109999,5.7839999)">
            <path
               d="M 3.515625,-1.265625 H 3.28125 c -0.015625,0.15625 -0.09375,0.5625 -0.1875,0.625 C 3.046875,-0.59375 2.515625,-0.59375 2.40625,-0.59375 H 1.125 c 0.734375,-0.640625 0.984375,-0.84375 1.390625,-1.171875 0.515625,-0.40625 1,-0.84375 1,-1.5 0,-0.84375 -0.734375,-1.359375 -1.625,-1.359375 -0.859375,0 -1.453125,0.609375 -1.453125,1.25 0,0.34375 0.296875,0.390625 0.375,0.390625 0.15625,0 0.359375,-0.125 0.359375,-0.375 0,-0.125 -0.046875,-0.375 -0.40625,-0.375 C 0.984375,-4.21875 1.453125,-4.375 1.78125,-4.375 c 0.703125,0 1.0625,0.546875 1.0625,1.109375 0,0.609375 -0.4375,1.078125 -0.65625,1.328125 L 0.515625,-0.265625 C 0.4375,-0.203125 0.4375,-0.1875 0.4375,0 h 2.875 z m 0,0"
               id="path16609" />
          </g>
        </g>
      </g>
    </g>
    <g
       inkscape:label=""
       transform="translate(149.35893,35.760548)"
       id="g16936">
      <g
         fill="#000000"
         fill-opacity="1"
         id="g16926"
         transform="matrix(0.352778,0,0,0.352778,-0.143316,0.0410104)">
        <g
           id="g16924"
           transform="translate(0,4.29)">
          <path
             d="m 3.953125,-3.78125 c -0.171875,0 -0.296875,0 -0.4375,0.125 -0.171875,0.15625 -0.1875,0.328125 -0.1875,0.390625 0,0.25 0.1875,0.359375 0.375,0.359375 0.28125,0 0.546875,-0.25 0.546875,-0.640625 0,-0.484375 -0.46875,-0.859375 -1.171875,-0.859375 -1.34375,0 -2.671875,1.421875 -2.671875,2.828125 0,0.90625 0.578125,1.6875 1.625,1.6875 1.421875,0 2.25,-1.0625 2.25,-1.171875 0,-0.0625 -0.046875,-0.140625 -0.109375,-0.140625 -0.0625,0 -0.078125,0.03125 -0.140625,0.109375 -0.78125,0.984375 -1.875,0.984375 -1.984375,0.984375 -0.625,0 -0.90625,-0.484375 -0.90625,-1.09375 0,-0.40625 0.203125,-1.375 0.546875,-1.984375 0.3125,-0.578125 0.859375,-1 1.40625,-1 0.328125,0 0.71875,0.125 0.859375,0.40625 z m 0,0"
             id="path16922" />
        </g>
      </g>
      <g
         clip-path="url(#clipPath5626)"
         id="g16934"
         transform="matrix(0.352778,0,0,0.352778,-0.143316,0.0410104)">
        <g
           fill="#000000"
           fill-opacity="1"
           id="g16932">
          <g
             id="g16930"
             transform="translate(4.3109999,5.7839999)">
            <path
               d="m 2.328125,-4.4375 c 0,-0.1875 0,-0.1875 -0.203125,-0.1875 -0.453125,0.4375 -1.078125,0.4375 -1.359375,0.4375 v 0.25 c 0.15625,0 0.625,0 1,-0.1875 v 3.546875 c 0,0.234375 0,0.328125 -0.6875,0.328125 H 0.8125 V 0 c 0.125,0 0.984375,-0.03125 1.234375,-0.03125 0.21875,0 1.09375,0.03125 1.25,0.03125 V -0.25 H 3.03125 c -0.703125,0 -0.703125,-0.09375 -0.703125,-0.328125 z m 0,0"
               id="path16928" />
          </g>
        </g>
      </g>
    </g>
    <g
       inkscape:label=""
       transform="translate(149.28108,47.69999)"
       id="g17275">
      <g
         fill="#000000"
         fill-opacity="1"
         id="g17265"
         transform="matrix(0.352778,0,0,0.352778,-0.143316,0.0410104)">
        <g
           id="g17263"
           transform="translate(0,4.29)">
          <path
             d="m 3.953125,-3.78125 c -0.171875,0 -0.296875,0 -0.4375,0.125 -0.171875,0.15625 -0.1875,0.328125 -0.1875,0.390625 0,0.25 0.1875,0.359375 0.375,0.359375 0.28125,0 0.546875,-0.25 0.546875,-0.640625 0,-0.484375 -0.46875,-0.859375 -1.171875,-0.859375 -1.34375,0 -2.671875,1.421875 -2.671875,2.828125 0,0.90625 0.578125,1.6875 1.625,1.6875 1.421875,0 2.25,-1.0625 2.25,-1.171875 0,-0.0625 -0.046875,-0.140625 -0.109375,-0.140625 -0.0625,0 -0.078125,0.03125 -0.140625,0.109375 -0.78125,0.984375 -1.875,0.984375 -1.984375,0.984375 -0.625,0 -0.90625,-0.484375 -0.90625,-1.09375 0,-0.40625 0.203125,-1.375 0.546875,-1.984375 0.3125,-0.578125 0.859375,-1 1.40625,-1 0.328125,0 0.71875,0.125 0.859375,0.40625 z m 0,0"
             id="path17261" />
        </g>
      </g>
      <g
         clip-path="url(#clipPath1154)"
         id="g17273"
         transform="matrix(0.352778,0,0,0.352778,-0.143316,0.0410104)">
        <g
           fill="#000000"
           fill-opacity="1"
           id="g17271">
          <g
             id="g17269"
             transform="translate(4.3109999,5.7839999)">
            <path
               d="M 3.59375,-2.21875 C 3.59375,-2.984375 3.5,-3.546875 3.1875,-4.03125 2.96875,-4.34375 2.53125,-4.625 1.984375,-4.625 c -1.625,0 -1.625,1.90625 -1.625,2.40625 0,0.5 0,2.359375 1.625,2.359375 1.609375,0 1.609375,-1.859375 1.609375,-2.359375 z M 1.984375,-0.0625 c -0.328125,0 -0.75,-0.1875 -0.890625,-0.75 C 1,-1.21875 1,-1.796875 1,-2.3125 1,-2.828125 1,-3.359375 1.09375,-3.734375 1.25,-4.28125 1.6875,-4.4375 1.984375,-4.4375 c 0.375,0 0.734375,0.234375 0.859375,0.640625 0.109375,0.375 0.125,0.875 0.125,1.484375 0,0.515625 0,1.03125 -0.09375,1.46875 -0.140625,0.640625 -0.609375,0.78125 -0.890625,0.78125 z m 0,0"
               id="path17267" />
          </g>
        </g>
      </g>
    </g>
    <g
       id="g5611"
       style="stroke:#000000;stroke-width:1.1;stroke-dasharray:none;stroke-opacity:1">
      <circle
         style="fill:#000000;stroke:#000000;stroke-width:1.1;stroke-linejoin:bevel;stroke-dasharray:none;stroke-dashoffset:0;stroke-opacity:1;paint-order:normal"
         id="path5329"
         cx="176.38419"
         cy="96.77636"
         r="0.4865185" />
      <circle
         style="fill:#000000;stroke:#000000;stroke-width:1.1;stroke-linejoin:bevel;stroke-dasharray:none;stroke-dashoffset:0;stroke-opacity:1;paint-order:normal"
         id="path5329-7"
         cx="207.74396"
         cy="114.96854"
         r="0.4865185" />
      <circle
         style="fill:#000000;stroke:#000000;stroke-width:1.1;stroke-linejoin:bevel;stroke-dasharray:none;stroke-dashoffset:0;stroke-opacity:1;paint-order:normal"
         id="path5329-7-9"
         cx="186.83745"
         cy="102.84042"
         r="0.4865185" />
      <circle
         style="fill:#000000;stroke:#000000;stroke-width:1.1;stroke-linejoin:bevel;stroke-dasharray:none;stroke-dashoffset:0;stroke-opacity:1;paint-order:normal"
         id="path5329-7-1"
         cx="197.2907"
         cy="108.90448"
         r="0.4865185" />
    </g>
    <g
       id="g5599"
       style="stroke:#000000;stroke-width:1.1;stroke-dasharray:none;stroke-opacity:1">
      <circle
         style="fill:#000000;stroke:#000000;stroke-width:1.1;stroke-linejoin:bevel;stroke-dasharray:none;stroke-dashoffset:0;stroke-opacity:1;paint-order:normal"
         id="path5329-7-5"
         cx="124.60119"
         cy="96.77636"
         r="0.4865185" />
      <circle
         style="fill:#000000;stroke:#000000;stroke-width:1.1;stroke-linejoin:bevel;stroke-dasharray:none;stroke-dashoffset:0;stroke-opacity:1;paint-order:normal"
         id="path5329-7-3"
         cx="93.241432"
         cy="114.96854"
         r="0.4865185" />
      <circle
         style="fill:#000000;stroke:#000000;stroke-width:1.1;stroke-linejoin:bevel;stroke-dasharray:none;stroke-dashoffset:0;stroke-opacity:1;paint-order:normal"
         id="path5329-7-27"
         cx="103.69469"
         cy="108.90448"
         r="0.4865185" />
      <circle
         style="fill:#000000;stroke:#000000;stroke-width:1.1;stroke-linejoin:bevel;stroke-dasharray:none;stroke-dashoffset:0;stroke-opacity:1;paint-order:normal"
         id="path5329-7-0"
         cx="114.14793"
         cy="102.84042"
         r="0.4865185" />
    </g>
    <g
       id="g5617"
       style="stroke:#000000;stroke-width:1.1;stroke-dasharray:none;stroke-opacity:1">
      <circle
         style="fill:#000000;stroke:#000000;stroke-width:1.1;stroke-linejoin:bevel;stroke-dasharray:none;stroke-dashoffset:0;stroke-opacity:1;paint-order:normal"
         id="path5329-7-56"
         cx="150.49269"
         cy="51.930969"
         r="0.4865185" />
      <circle
         style="fill:#000000;stroke:#000000;stroke-width:1.1;stroke-linejoin:bevel;stroke-dasharray:none;stroke-dashoffset:0;stroke-opacity:1;paint-order:normal"
         id="path5329-7-2"
         cx="150.49269"
         cy="15.806435"
         r="0.4865185" />
      <circle
         style="fill:#000000;stroke:#000000;stroke-width:1.1;stroke-linejoin:bevel;stroke-dasharray:none;stroke-dashoffset:0;stroke-opacity:1;paint-order:normal"
         id="path5329-7-93"
         cx="150.49269"
         cy="39.889458"
         r="0.4865185" />
      <circle
         style="fill:#000000;stroke:#000000;stroke-width:1.1;stroke-linejoin:bevel;stroke-dasharray:none;stroke-dashoffset:0;stroke-opacity:1;paint-order:normal"
         id="path5329-7-6"
         cx="150.49269"
         cy="27.847946"
         r="0.4865185" />
    </g>
    <g
       inkscape:label=""
       transform="translate(148.50084,117.39052)"
       id="g19598"
       style="fill:#2ca02c;fill-opacity:1">
      <g
         fill="#000000"
         fill-opacity="1"
         id="g12"
         transform="matrix(0.352778,0,0,0.352778,-0.286632,5.73285e-4)"
         style="fill:#2ca02c;fill-opacity:1">
        <g
           id="use10"
           transform="translate(0,11.764)"
           style="fill:#2ca02c;fill-opacity:1">
          <path
             d="m 6.34375,-10.59375 c 0.140625,-0.640625 0.21875,-0.671875 0.890625,-0.671875 H 8.46875 c 1.484375,0 2.578125,0.453125 2.578125,1.796875 0,0.875 -0.4375,3.40625 -3.90625,3.40625 h -1.9375 z m 2.390625,4.734375 c 2.125,-0.453125 3.796875,-1.84375 3.796875,-3.3125 0,-1.34375 -1.359375,-2.59375 -3.75,-2.59375 H 4.109375 c -0.34375,0 -0.5,0 -0.5,0.328125 0,0.171875 0.125,0.171875 0.453125,0.171875 1.03125,0 1.03125,0.140625 1.03125,0.328125 0,0.03125 0,0.140625 -0.0625,0.40625 l -2.328125,9.25 C 2.546875,-0.671875 2.515625,-0.5 1.328125,-0.5 0.9375,-0.5 0.8125,-0.5 0.8125,-0.171875 0.8125,0 1,0 1.046875,0 c 0.3125,0 0.671875,-0.03125 1,-0.03125 h 2.03125 C 4.390625,-0.03125 4.75,0 5.0625,0 5.203125,0 5.390625,0 5.390625,-0.328125 5.390625,-0.5 5.234375,-0.5 4.96875,-0.5 c -1.046875,0 -1.046875,-0.140625 -1.046875,-0.3125 0,-0.015625 0,-0.140625 0.03125,-0.265625 L 5.109375,-5.71875 H 7.1875 c 1.625,0 1.9375,1.03125 1.9375,1.609375 0,0.25 -0.171875,0.921875 -0.296875,1.375 -0.1875,0.78125 -0.234375,0.984375 -0.234375,1.3125 0,1.21875 1,1.78125 2.15625,1.78125 1.390625,0 1.984375,-1.703125 1.984375,-1.9375 0,-0.125 -0.07813,-0.171875 -0.1875,-0.171875 -0.125,0 -0.171875,0.09375 -0.203125,0.234375 -0.40625,1.21875 -1.109375,1.53125 -1.546875,1.53125 -0.4375,0 -0.703125,-0.1875 -0.703125,-0.96875 0,-0.40625 0.203125,-1.96875 0.21875,-2.0625 0.09375,-0.640625 0.09375,-0.703125 0.09375,-0.84375 0,-1.25 -1.015625,-1.78125 -1.671875,-2 z m 0,0"
             id="path18"
             style="fill:#2ca02c;fill-opacity:1" />
        </g>
      </g>
    </g>
    <g
       inkscape:label=""
       transform="translate(195.63169,63.786221)"
       id="g20679"
       style="fill:#d62728;fill-opacity:1">
      <g
         clip-path="url(#clipPath3560)"
         id="g17"
         transform="matrix(0.352778,0,0,0.352778,-0.308681,0.127353)"
         style="fill:#d62728;fill-opacity:1">
        <g
           fill="#000000"
           fill-opacity="1"
           id="g15"
           style="fill:#d62728;fill-opacity:1">
          <g
             id="use13"
             transform="translate(0,11.764)"
             style="fill:#d62728;fill-opacity:1">
            <path
               d="m 10.9375,-11.96875 c 0,-0.15625 -0.125,-0.15625 -0.15625,-0.15625 -0.07813,0 -0.09375,0.01563 -0.296875,0.28125 -0.09375,0.125 -0.8125,1.015625 -0.828125,1.03125 -0.5625,-1.125 -1.703125,-1.3125 -2.421875,-1.3125 -2.1875,0 -4.171875,2 -4.171875,3.953125 0,1.28125 0.78125,2.046875 1.625,2.328125 0.1875,0.078125 1.203125,0.34375 1.71875,0.46875 0.875,0.25 1.09375,0.3125 1.46875,0.6875 0.0625,0.09375 0.40625,0.484375 0.40625,1.296875 0,1.59375 -1.484375,3.25 -3.203125,3.25 -1.40625,0 -2.984375,-0.59375 -2.984375,-2.53125 0,-0.328125 0.078125,-0.734375 0.125,-0.90625 0,-0.0625 0.015625,-0.140625 0.015625,-0.171875 0,-0.078125 -0.03125,-0.15625 -0.171875,-0.15625 -0.15625,0 -0.171875,0.03125 -0.234375,0.328125 l -0.875,3.53125 c 0,0.015625 -0.078125,0.234375 -0.078125,0.25 0,0.15625 0.140625,0.15625 0.171875,0.15625 0.078125,0 0.09375,-0.015625 0.296875,-0.265625 l 0.796875,-1.046875 c 0.40625,0.625 1.296875,1.3125 2.90625,1.3125 2.21875,0 4.25,-2.15625 4.25,-4.296875 0,-0.734375 -0.171875,-1.359375 -0.828125,-2 C 8.109375,-6.296875 7.796875,-6.390625 6.21875,-6.796875 5.0625,-7.109375 4.90625,-7.15625 4.59375,-7.4375 4.3125,-7.734375 4.078125,-8.140625 4.078125,-8.734375 c 0,-1.4375 1.46875,-2.921875 3.109375,-2.921875 1.6875,0 2.46875,1.03125 2.46875,2.671875 0,0.4375 -0.078125,0.90625 -0.078125,0.984375 0,0.140625 0.140625,0.140625 0.1875,0.140625 0.15625,0 0.171875,-0.046875 0.234375,-0.3125 z m 0,0"
               id="path23"
               style="fill:#d62728;fill-opacity:1" />
          </g>
        </g>
      </g>
    </g>
    <g
       inkscape:label=""
       transform="translate(111.99461,63.93011)"
       id="g21055"
       style="fill:#1f77b4;fill-opacity:1">
      <g
         clip-path="url(#clipPath4894)"
         id="g21053"
         transform="matrix(0.352778,0,0,0.352778,-0.143316,-0.0324996)"
         style="fill:#1f77b4;fill-opacity:1">
        <g
           fill="#000000"
           fill-opacity="1"
           id="g21051"
           style="fill:#1f77b4;fill-opacity:1">
          <g
             id="g21049"
             transform="translate(0,11.764)"
             style="fill:#1f77b4;fill-opacity:1">
            <path
               d="m 7.1875,-10.5 c 0.09375,-0.421875 0.125,-0.578125 0.390625,-0.640625 0.140625,-0.03125 0.703125,-0.03125 1.0625,-0.03125 1.71875,0 2.53125,0.0625 2.53125,1.40625 0,0.265625 -0.0625,0.921875 -0.171875,1.546875 L 10.984375,-8 c 0,0.0625 0.0625,0.171875 0.171875,0.171875 0.171875,0 0.171875,-0.09375 0.21875,-0.375 l 0.5,-3.046875 c 0.04687,-0.15625 0.04687,-0.1875 0.04687,-0.234375 0,-0.1875 -0.109375,-0.1875 -0.453125,-0.1875 h -9.42187 c -0.390625,0 -0.40625,0.01563 -0.515625,0.328125 L 0.484375,-8.25 C 0.46875,-8.21875 0.40625,-8.03125 0.40625,-8 c 0,0.078125 0.078125,0.171875 0.171875,0.171875 0.140625,0 0.171875,-0.078125 0.25,-0.296875 0.71875,-2.078125 1.078125,-3.046875 3.375,-3.046875 h 1.15625 c 0.40625,0 0.578125,0 0.578125,0.1875 0,0.04687 0,0.07813 -0.078125,0.390625 l -2.3125,9.25 C 3.375,-0.671875 3.34375,-0.5 1.515625,-0.5 1.078125,-0.5 0.96875,-0.5 0.96875,-0.171875 0.96875,0 1.15625,0 1.234375,0 1.671875,0 2.125,-0.03125 2.546875,-0.03125 h 2.6875 C 5.671875,-0.03125 6.125,0 6.5625,0 6.75,0 6.921875,0 6.921875,-0.328125 6.921875,-0.5 6.796875,-0.5 6.359375,-0.5 c -1.5625,0 -1.5625,-0.15625 -1.5625,-0.40625 0,-0.03125 0,-0.140625 0.078125,-0.421875 z m 0,0"
               id="path21047"
               style="fill:#1f77b4;fill-opacity:1" />
          </g>
        </g>
      </g>
    </g>
  </g>
</svg>
